<svg xmlns="http://www.w3.org/2000/svg" height="24px" viewBox="0 -960 960 960" width="24px" fill="#e3e3e3"><path d="M479.9-845.96q6.64 0 12.5 1.15 5.87 1.16 11.79 3.47l224.46 84.19q19.44 7.65 31.76 24.96 12.32 17.3 12.32 38.77v144q0 11.63-8.24 19.85t-19.66 8.22q-11.64 0-19.85-8.22t-8.21-19.85V-693.5q0-3.85-2.12-6.92-2.11-3.08-5.96-4.62l-224.46-83.88q-1.92-.77-4.23-.77-2.31 0-4.23.77l-224.46 83.85q-3.85 1.54-5.96 4.62-2.12 3.07-2.12 6.92V-516q0 57.08 16.31 109.6 16.31 52.52 44.23 96.5 27.92 43.98 65.33 76.85 37.4 32.87 78.94 51.82 11.04 5.38 15.79 16.29t.35 21.94q-4.68 11.45-16.1 15.49-11.42 4.05-22.27-1.34-109.7-50.67-174.12-158.68T187.27-516v-177.5q0-21.39 12.32-38.69 12.32-17.31 31.95-24.96L456-841.34q5.83-2.47 11.79-3.54 5.97-1.08 12.11-1.08Zm197.73 737.88q-72.55 0-123.48-50.87-50.92-50.87-50.92-123.42 0-72.55 50.87-123.48 50.87-50.92 123.42-50.92 72.56 0 123.48 50.87t50.92 123.42q0 72.56-50.87 123.48t-123.42 50.92ZM480-485.92Zm197.52 203.5q24.75 0 42-17.19 17.25-17.2 17.25-41.95 0-24.75-17.19-42t-41.94-17.25q-24.76 0-42.01 17.19-17.25 17.19-17.25 41.95 0 24.75 17.2 42 17.19 17.25 41.94 17.25Zm.21 118.38q25.23 0 48.15-9.54 22.93-9.54 40.12-28.3 4.42-5.12 3.08-11.6-1.35-6.48-7.7-9.79-19.88-10.08-40.89-15.02-21.01-4.94-42.85-4.94-21.83 0-42.91 5.14-21.08 5.15-40.46 14.82-6.54 3.31-7.64 9.68-1.09 6.38 3.52 11.71 17 18.52 39.68 28.18 22.67 9.66 47.9 9.66Z"/></svg>