<svg xmlns="http://www.w3.org/2000/svg" height="24px" viewBox="0 -960 960 960" width="24px" fill="#e3e3e3"><path d="M479.91-865q7.59 0 13.84 1.25T506.5-860l236 89q21.45 8.45 34.98 27.24Q791-724.98 791-701.5v129q0 15.5-11 26.5t-26.5 11q-15.5 0-26.5-11t-11-26.5V-701l-236-88.5-236 88.54V-516q0 54 15.25 104.5t41.25 94q26 43.5 61.25 76.75T436.5-187q14.5 7.5 20.5 22t0 29q-6.5 15-21.5 20.5t-29.5-2q-109.31-54.91-173.16-165.7Q169-394 169-516v-185.5q0-23.48 13.52-42.26 13.53-18.79 34.98-27.24l236-89q6.5-2.5 13.14-3.75 6.64-1.25 13.27-1.25ZM677.07-90Q597-90 540.5-146.43 484-202.87 484-282.93q0-80.07 56.43-136.57 56.44-56.5 136.5-56.5 80.07 0 136.57 56.43 56.5 56.44 56.5 136.5 0 80.07-56.43 136.57Q757.13-90 677.07-90ZM480-491.5ZM676.94-283q24.56 0 41.81-17.19Q736-317.38 736-341.94t-17.19-41.81Q701.62-401 677.06-401t-41.81 17.19Q618-366.62 618-342.06t17.19 41.81Q652.38-283 676.94-283Zm.31 118q24.75 0 47-9.25t39.25-27.25q5-5.5 3.75-12.75T758.5-225q-19.5-9.5-39.75-14.25t-41.5-4.75q-21.25 0-41.75 5T596-225q-7.5 3.5-8.5 10.64-1 7.15 4 12.86 17 17.76 39 27.13 22 9.37 46.75 9.37Z"/></svg>