<svg xmlns="http://www.w3.org/2000/svg" height="24px" viewBox="0 -960 960 960" width="24px" fill="#e3e3e3"><path d="m479.69-268-222.03 95.19q-11.17 4.62-20.93 2.12-9.77-2.5-16.46-9.64-6.69-7.13-9.19-17.2-2.5-10.06 2.5-20.86L449.4-748.23q4.29-10.5 12.93-15.61 8.63-5.12 18.07-5.12 9.45 0 18.08 5.12 8.64 5.11 12.91 15.62l235.53 530.33q4.81 10.66 2.15 20.54-2.65 9.89-9.34 17.02-6.69 7.14-16.46 9.64-9.76 2.5-20.93-2.12L479.69-268Zm-192.77 20.77 193.58-82.39 192.77 82.39L480.5-681.58 286.92-247.23Zm193.58-82.39Z"/></svg>