<svg xmlns="http://www.w3.org/2000/svg" height="24px" viewBox="0 -960 960 960" width="24px" fill="#e3e3e3"><path d="M520.5-239.07q17.98-17.71 17.98-43.21t-17.84-43.24q-17.84-17.74-43.22-17.74t-43.35 17.6q-17.98 17.6-17.98 43.1 0 25.49 17.83 43.35 17.84 17.86 43.22 17.86t43.36-17.72ZM480-44.65q-90.36 0-169.91-34.14-79.56-34.14-138.36-92.94-58.8-58.8-92.94-138.36Q44.65-389.64 44.65-480q0-90.61 34.2-170.28 34.2-79.66 93.1-138.62 58.9-58.97 138.35-92.71 79.46-33.74 169.7-33.74 90.6 0 170.26 33.74 79.65 33.74 138.63 92.72 58.98 58.98 92.72 138.66t33.74 170.31q0 90.64-33.74 169.85-33.74 79.22-92.71 138.12-58.96 58.9-138.62 93.1-79.67 34.2-170.28 34.2Zm3.03-605.85q21.82 0 38.76 12.9 16.95 12.9 16.95 34.71 0 20.56-12.66 36.73-12.67 16.16-28.71 29.44-25.52 21.76-46.54 47.26-21.03 25.5-21.03 58.03 0 18.66 14.12 31.45 14.12 12.78 34.12 12.78 19.83 0 33.89-13.12 14.07-13.11 19.55-33.11 5.48-21.57 19.16-38.26 13.68-16.7 29.45-31.68 23-22.76 39.9-50.76 16.9-28 16.9-60.52 0-56.76-46.18-91.5-46.19-34.74-106-34.74-42.23 0-80.23 18.24-38 18.24-60.48 54-9.24 14.48-5.62 31.45 3.62 16.98 17.74 27.02 17.84 11.2 38.2 6.2 20.35-5 34.59-22 10.52-12.28 24.31-18.4 13.78-6.12 29.81-6.12Z"/></svg>